<svg width="314" height="335" viewBox="0 0 314 335" fill="none" xmlns="http://www.w3.org/2000/svg">
<path d="M111.053 228.352H68.4422C55.4161 228.352 44.8186 216.952 44.8186 202.939V154.962C44.8186 140.949 55.4161 129.548 68.4422 129.548H130.702M172.872 129.548H235.132C248.158 129.548 258.756 140.949 258.756 154.962V202.939C258.756 216.952 248.158 228.352 235.132 228.352H192.521L172.872 129.548Z" stroke="#FFDF00" stroke-width="7.22994" stroke-miterlimit="10" stroke-linecap="square" stroke-linejoin="round"/>
<path d="M170.075 132.171H135.339C133.385 132.171 131.865 130.595 131.865 128.569C131.865 126.544 133.385 124.968 135.339 124.968H170.075C172.029 124.968 173.549 126.544 173.549 128.569C173.549 130.37 172.029 132.171 170.075 132.171Z" stroke="#FFDF00" stroke-width="6.97928" stroke-miterlimit="10" stroke-linecap="round" stroke-linejoin="round"/>
<path d="M272.329 156.199V150.827C272.329 130.505 256.697 113.92 237.543 113.92H65.3712C46.2166 113.92 30.5846 130.505 30.5846 150.827V156.199C28.6031 156.199 27.062 157.834 27.062 159.936V197.31C27.062 199.412 28.6031 201.047 30.5846 201.047V206.42C30.5846 226.741 46.2166 243.326 65.3712 243.326H107.643C115.569 243.326 123.275 240.289 129.66 235.15L141.109 225.34C147.274 219.967 156.301 219.967 162.465 225.34L173.914 235.15C180.079 240.523 187.785 243.326 195.931 243.326H238.203C257.358 243.326 272.99 226.741 272.99 206.42V201.047C274.971 201.047 276.512 199.412 276.512 197.31V159.936C275.852 157.834 274.311 156.199 272.329 156.199V156.199Z" stroke="#FFDF00" stroke-width="7.15997" stroke-miterlimit="10" stroke-linecap="round" stroke-linejoin="round"/>
<path d="M180.28 113.19C164.339 112.951 153.934 113.19 153.934 113.19C153.934 113.19 143.307 112.951 127.588 113.19C127.588 113.19 133.344 78.9455 132.68 53.8009C132.68 52.843 133.344 52.1246 134.229 51.6456C136.886 50.9272 142.642 49.7299 153.934 49.7299C163.896 49.7299 170.538 51.1667 173.416 51.8851C174.302 52.1246 175.187 53.0825 174.966 54.0404C174.745 78.9455 180.28 113.19 180.28 113.19Z" stroke="#FFDF00" stroke-width="7.26983" stroke-miterlimit="10" stroke-linecap="round" stroke-linejoin="round"/>
<path d="M175.605 65.2441C175.605 65.2441 178.262 76.2298 195.973 87.9319C213.685 99.634 212.799 113.008 212.799 113.008C212.799 113.008 201.951 113.485 194.423 113.008C194.423 113.008 192.652 100.828 178.04 95.8129C178.04 95.8129 176.712 84.8272 176.49 81.0062C176.269 76.9462 175.605 65.2441 175.605 65.2441V65.2441ZM154.351 97.7234V49.7209V97.7234ZM132.876 65.2441C132.876 65.2441 130.219 76.2298 112.507 87.9319C94.7958 99.634 95.6814 113.008 95.6814 113.008C95.6814 113.008 106.53 113.485 114.057 113.008C114.057 113.008 115.828 100.828 130.44 95.8129C130.44 95.8129 131.769 84.8272 131.99 81.0062C131.99 76.9462 132.876 65.2441 132.876 65.2441V65.2441Z" stroke="#FFDF00" stroke-width="7.25989" stroke-miterlimit="10" stroke-linecap="round" stroke-linejoin="round"/>
</svg>
