<svg width="234" height="237" viewBox="0 0 234 237" fill="none" xmlns="http://www.w3.org/2000/svg">
<path d="M106.546 79.2062C105.484 79.2062 104.408 79.2664 103.324 79.3895C90.6389 80.8203 80.3232 91.1682 78.7977 104C77.6089 113.916 81.4873 123.523 89.1732 129.708C90.0726 130.436 90.6023 131.538 90.6023 132.703V140.131C90.6023 145.041 94.5406 149.038 99.3942 149.038H113.714C118.566 149.038 122.504 145.041 122.504 140.131V132.703C122.504 131.538 123.036 130.436 123.935 129.713C130.659 124.289 134.523 116.208 134.523 107.54C134.524 91.919 121.974 79.2062 106.546 79.2062Z" fill="#FFDF00"/>
<path d="M211.276 140.212C206.675 114.123 195.443 50.2653 188.107 40.6562C175.069 19.2392 148.743 4.5697 118.338 4.5697C74.9705 4.5697 26.373 12.6407 22.8333 77.3097C19.3676 140.648 36.8143 154.198 49.204 165.947C54.0558 170.547 56.8136 176.973 56.8136 183.707V226.616C56.8136 229.831 59.3802 232.431 62.5525 232.431H132.416C135.586 232.431 138.152 229.831 138.152 226.616V220.2C138.152 216.596 139.569 213.136 142.099 210.593C144.628 208.041 148.049 206.629 151.611 206.641C161.5 206.693 173.446 206.716 174.678 206.554C194.029 204.046 188.653 182.333 193.166 151.251H203.866C206.498 151.251 208.96 149.926 210.451 147.72C211.933 145.511 211.74 142.84 211.276 140.212ZM102.778 39.2768C102.778 38.0135 103.789 36.9901 105.036 36.9901H108.072C109.319 36.9901 110.33 38.014 110.33 39.2768V51.9118C110.33 53.1751 109.319 54.1985 108.072 54.1985H105.036C103.789 54.1985 102.778 53.1746 102.778 51.9118V39.2768ZM67.6201 51.972C68.0437 51.5429 68.6182 51.3022 69.2169 51.3022C69.8161 51.3022 70.3906 51.5434 70.8138 51.9725L77.4161 58.6636C78.2972 59.5565 78.2972 61.0044 77.4156 61.8973L75.2703 64.0706C74.8466 64.4997 74.2721 64.7404 73.6734 64.7404C73.0743 64.7404 72.4998 64.4992 72.0761 64.0701L65.4743 57.3786C64.5931 56.4852 64.5936 55.0377 65.4748 54.1448L67.6201 51.972ZM130.056 134.486V140.13C130.056 147.424 125.35 153.558 118.861 155.763V162.099C118.861 165.638 116.036 168.511 112.535 168.511H100.573C97.0698 168.511 94.2467 165.638 94.2467 162.099V155.763C87.7564 153.558 83.0522 147.423 83.0522 140.13V134.486C74.2479 126.626 69.8741 115.023 71.2973 103.08C73.2438 86.7698 86.3561 73.6047 102.491 71.786C123.941 69.3809 142.076 86.3477 142.076 107.539C142.076 117.925 137.717 127.643 130.056 134.486ZM141.034 63.3147C140.611 63.7438 140.036 63.985 139.437 63.985C138.838 63.985 138.264 63.7442 137.84 63.3151L135.694 61.1419C134.813 60.249 134.813 58.802 135.694 57.909L142.294 51.2184C142.718 50.7893 143.292 50.5482 143.891 50.5482C144.49 50.5482 145.064 50.7893 145.488 51.218L147.634 53.3917C148.515 54.2846 148.516 55.7316 147.634 56.6245L141.034 63.3147Z" fill="#FFDF00"/>
</svg>
