<svg width="234" height="237" viewBox="0 0 234 237" fill="none" xmlns="http://www.w3.org/2000/svg">
<g clip-path="url(#clip0_129_351)">
<path d="M76.8281 76.314L47.2668 47.874" stroke="#FFDF00" stroke-width="3" stroke-linecap="round"/>
<path d="M148.824 77.3391L176.904 47.3987" stroke="#FFDF00" stroke-width="3" stroke-linecap="round"/>
<path d="M149.292 148.562L177.372 179.645" stroke="#FFDF00" stroke-width="3" stroke-linecap="round"/>
<path d="M76.284 149.084L48.204 179.17" stroke="#FFDF00" stroke-width="3" stroke-linecap="round"/>
<path d="M93.6 74.8263V38.3933L74.88 19.4333" stroke="#FFDF00" stroke-width="3" stroke-linecap="round"/>
<path d="M94.068 151.239V187.671L75.348 206.631" stroke="#FFDF00" stroke-width="3" stroke-linecap="round"/>
<path d="M112.32 75.2527V39.8156" stroke="#FFDF00" stroke-width="3" stroke-linecap="round"/>
<path d="M131.04 74.8263V38.3933L149.76 19.4333" stroke="#FFDF00" stroke-width="3" stroke-linecap="round"/>
<path d="M131.508 151.239V187.671L150.228 206.631" stroke="#FFDF00" stroke-width="3" stroke-linecap="round"/>
<path d="M112.32 151.206V189.126" stroke="#FFDF00" stroke-width="3" stroke-linecap="round"/>
<path d="M150.026 95.037H185.998L204.718 76.077" stroke="#FFDF00" stroke-width="3" stroke-linecap="round"/>
<path d="M150.494 132.483H186.466L205.186 151.443" stroke="#FFDF00" stroke-width="3" stroke-linecap="round"/>
<path d="M149.76 113.76H187.2" stroke="#FFDF00" stroke-width="3" stroke-linecap="round"/>
<path d="M75.0819 94.563H39.1101L20.3901 75.603" stroke="#FFDF00" stroke-width="3" stroke-linecap="round"/>
<path d="M74.88 113.76H37.44" stroke="#FFDF00" stroke-width="3" stroke-linecap="round"/>
<path d="M75.0819 132.483H39.1101L20.3901 151.443" stroke="#FFDF00" stroke-width="3" stroke-linecap="round"/>
<path d="M43.056 37.446C46.156 37.446 48.672 39.9942 48.672 43.134C48.672 46.2738 46.156 48.822 43.056 48.822C39.956 48.822 37.44 46.2738 37.44 43.134C37.44 39.9942 39.956 37.446 43.056 37.446Z" stroke="#FFDF00" stroke-width="2.88" stroke-linecap="round"/>
<path d="M70.668 9.47998C73.768 9.47998 76.284 12.0282 76.284 15.168C76.284 18.3078 73.768 20.856 70.668 20.856C67.568 20.856 65.052 18.3078 65.052 15.168C65.052 12.0282 67.568 9.47998 70.668 9.47998Z" stroke="#FFDF00" stroke-width="2.88" stroke-linecap="round"/>
<path d="M112.32 28.44C115.42 28.44 117.936 30.9882 117.936 34.128C117.936 37.2678 115.42 39.816 112.32 39.816C109.22 39.816 106.704 37.2678 106.704 34.128C106.704 30.9882 109.22 28.44 112.32 28.44Z" stroke="#FFDF00" stroke-width="2.88" stroke-linecap="round"/>
<path d="M153.972 9.47998C157.072 9.47998 159.588 12.0282 159.588 15.168C159.588 18.3078 157.072 20.856 153.972 20.856C150.872 20.856 148.356 18.3078 148.356 15.168C148.356 12.0282 150.872 9.47998 153.972 9.47998Z" stroke="#FFDF00" stroke-width="2.88" stroke-linecap="round"/>
<path d="M181.584 37.446C184.684 37.446 187.2 39.9942 187.2 43.134C187.2 46.2738 184.684 48.822 181.584 48.822C178.484 48.822 175.968 46.2738 175.968 43.134C175.968 39.9942 178.484 37.446 181.584 37.446Z" stroke="#FFDF00" stroke-width="2.88" stroke-linecap="round"/>
<path d="M209.196 66.36C212.296 66.36 214.812 68.9082 214.812 72.048C214.812 75.1878 212.296 77.736 209.196 77.736C206.096 77.736 203.58 75.1878 203.58 72.048C203.58 68.9082 206.096 66.36 209.196 66.36Z" stroke="#FFDF00" stroke-width="2.88" stroke-linecap="round"/>
<path d="M192.816 108.072C195.916 108.072 198.432 110.62 198.432 113.76C198.432 116.9 195.916 119.448 192.816 119.448C189.716 119.448 187.2 116.9 187.2 113.76C187.2 110.62 189.716 108.072 192.816 108.072Z" stroke="#FFDF00" stroke-width="2.88" stroke-linecap="round"/>
<path d="M209.664 149.784C212.764 149.784 215.28 152.332 215.28 155.472C215.28 158.612 212.764 161.16 209.664 161.16C206.564 161.16 204.048 158.612 204.048 155.472C204.048 152.332 206.564 149.784 209.664 149.784Z" stroke="#FFDF00" stroke-width="2.88" stroke-linecap="round"/>
<path d="M181.584 178.224C184.684 178.224 187.2 180.772 187.2 183.912C187.2 187.052 184.684 189.6 181.584 189.6C178.484 189.6 175.968 187.052 175.968 183.912C175.968 180.772 178.484 178.224 181.584 178.224Z" stroke="#FFDF00" stroke-width="2.88" stroke-linecap="round"/>
<path d="M154.908 205.242C158.008 205.242 160.524 207.79 160.524 210.93C160.524 214.07 158.008 216.618 154.908 216.618C151.808 216.618 149.292 214.07 149.292 210.93C149.292 207.79 151.808 205.242 154.908 205.242Z" stroke="#FFDF00" stroke-width="2.88" stroke-linecap="round"/>
<path d="M112.32 189.6C115.42 189.6 117.936 192.148 117.936 195.288C117.936 198.428 115.42 200.976 112.32 200.976C109.22 200.976 106.704 198.428 106.704 195.288C106.704 192.148 109.22 189.6 112.32 189.6Z" stroke="#FFDF00" stroke-width="2.88" stroke-linecap="round"/>
<path d="M71.604 206.19C74.704 206.19 77.22 208.738 77.22 211.878C77.22 215.018 74.704 217.566 71.604 217.566C68.504 217.566 65.988 215.018 65.988 211.878C65.988 208.738 68.504 206.19 71.604 206.19Z" stroke="#FFDF00" stroke-width="2.88" stroke-linecap="round"/>
<path d="M43.524 178.224C46.624 178.224 49.14 180.772 49.14 183.912C49.14 187.052 46.624 189.6 43.524 189.6C40.424 189.6 37.908 187.052 37.908 183.912C37.908 180.772 40.424 178.224 43.524 178.224Z" stroke="#FFDF00" stroke-width="2.88" stroke-linecap="round"/>
<path d="M31.824 108.072C34.924 108.072 37.44 110.62 37.44 113.76C37.44 116.9 34.924 119.448 31.824 119.448C28.724 119.448 26.208 116.9 26.208 113.76C26.208 110.62 28.724 108.072 31.824 108.072Z" stroke="#FFDF00" stroke-width="2.88" stroke-linecap="round"/>
<path d="M15.912 65.886C19.012 65.886 21.528 68.4342 21.528 71.574C21.528 74.7138 19.012 77.262 15.912 77.262C12.812 77.262 10.296 74.7138 10.296 71.574C10.296 68.4342 12.812 65.886 15.912 65.886Z" stroke="#FFDF00" stroke-width="2.88" stroke-linecap="round"/>
<path d="M15.444 149.784C18.544 149.784 21.06 152.332 21.06 155.472C21.06 158.612 18.544 161.16 15.444 161.16C12.344 161.16 9.828 158.612 9.828 155.472C9.828 152.332 12.344 149.784 15.444 149.784Z" stroke="#FFDF00" stroke-width="2.88" stroke-linecap="round"/>
<path d="M74.7396 80.6918C74.7396 77.4101 77.3662 74.7498 80.6063 74.7498H145.09C148.005 74.7498 150.368 77.1434 150.368 80.0961V146.517C150.368 149.185 148.233 151.348 145.598 151.348H78.4426C76.3975 151.348 74.7396 149.669 74.7396 147.598V80.6918Z" stroke="#FFDF00" stroke-width="4" stroke-linecap="round"/>
<path d="M117.379 135.119L112.106 121.526H94.9381L89.6939 135.119H84.6549L101.413 92.1116H105.895L122.536 135.119H117.379ZM110.612 117.102L105.602 103.596C105.485 103.244 105.29 102.668 105.016 101.867C104.762 101.067 104.499 100.237 104.225 99.3772C103.952 98.5178 103.727 97.8245 103.551 97.2971C103.356 98.0979 103.141 98.8987 102.907 99.6995C102.692 100.481 102.477 101.213 102.262 101.897C102.047 102.561 101.862 103.127 101.706 103.596L96.608 117.102H110.612ZM128.483 135.119V92.2874H133.463V135.119H128.483Z" fill="#FFDF00"/>
</g>
<defs>
<clipPath id="clip0_129_351">
<rect width="234" height="237" fill="white"/>
</clipPath>
</defs>
</svg>
